<svg width="350" height="350" viewBox="0 0 350 350" fill="none" xmlns="http://www.w3.org/2000/svg">
<path d="M285.467 122.803C290.094 120.617 292.101 115.074 289.594 110.613C276.29 86.9335 255.93 67.8839 231.244 56.1971C203.758 43.1848 172.611 40.1054 143.109 47.4835C113.608 54.8615 87.5769 72.2407 69.4525 96.6597C51.328 121.079 42.2312 151.027 43.7121 181.401C45.1929 211.775 57.1598 240.696 77.5736 263.236C97.9875 285.776 125.585 300.541 155.665 305.014C185.744 309.487 216.444 303.393 242.534 287.768C265.966 273.736 284.376 252.796 295.314 227.934C297.375 223.25 294.838 217.929 290.021 216.203V216.203C285.203 214.478 279.934 217.004 277.819 221.664C268.364 242.497 252.765 260.041 233.012 271.87C210.601 285.291 184.229 290.527 158.391 286.684C132.552 282.841 108.845 270.158 91.3092 250.796C73.7733 231.434 63.4936 206.59 62.2215 180.498C60.9495 154.406 68.7638 128.681 84.333 107.704C99.9022 86.7281 122.263 71.7991 147.605 65.4612C172.948 59.1233 199.704 61.7686 223.314 72.9464C244.124 82.7981 261.355 98.7407 272.792 118.555C275.35 122.987 280.84 124.989 285.467 122.803V122.803Z" fill="url(#paint0_angular_979_1899)"/>
<path d="M85.2567 157.223C81.4978 156.478 77.8212 158.921 77.3431 162.723C74.8052 182.902 78.5771 203.437 88.2318 221.467C98.9816 241.541 116.359 257.267 137.404 265.965C158.449 274.664 181.859 275.796 203.644 269.169C225.43 262.542 244.244 248.566 256.881 229.622C269.518 210.679 275.195 187.94 272.945 165.28C270.696 142.62 260.659 121.441 244.545 105.351C228.431 89.2617 207.236 79.2573 184.573 77.0427C164.218 75.0537 143.809 79.4588 126.153 89.5528C122.826 91.4546 121.983 95.7874 124.114 98.9719V98.9719C126.245 102.156 130.543 102.982 133.891 101.119C148.861 92.7895 166.065 89.1768 183.223 90.8535C202.692 92.7559 220.898 101.35 234.74 115.171C248.583 128.992 257.205 147.185 259.137 166.651C261.069 186.116 256.192 205.649 245.337 221.922C234.482 238.195 218.32 250.2 199.606 255.893C180.892 261.585 160.782 260.613 142.705 253.141C124.627 245.669 109.699 232.16 100.465 214.916C92.3261 199.718 89.0539 182.446 90.9948 165.425C91.4289 161.618 89.0155 157.968 85.2567 157.223V157.223Z" fill="url(#paint1_linear_979_1899)"/>
<defs>
<radialGradient id="paint0_angular_979_1899" cx="0" cy="0" r="1" gradientUnits="userSpaceOnUse" gradientTransform="translate(175 175) rotate(-25.2912) scale(218.077 204.634)">
<stop stop-color="#EA8122"/>
<stop offset="1" stop-color="#F2B22B"/>
</radialGradient>
<linearGradient id="paint1_linear_979_1899" x1="194.129" y1="78.4527" x2="155.872" y2="271.552" gradientUnits="userSpaceOnUse">
<stop stop-color="#6F97F0"/>
<stop offset="1" stop-color="#4B5EE4"/>
</linearGradient>
</defs>
</svg>
