<svg width="350" height="401" viewBox="0 0 350 401" fill="none" xmlns="http://www.w3.org/2000/svg">
<g clip-path="url(#clip0_719_1547)">
<path d="M167.962 375.784L167.516 365.734C167.47 365.71 167.423 365.685 167.377 365.661C162.597 363.148 157.119 367.697 158.646 372.884C160.082 377.766 161.048 383.028 163.677 387.3C165.23 389.782 167.321 391.881 169.795 393.443C172.268 395.005 175.06 395.989 177.965 396.322L184.037 400.048C184.87 395.393 184.687 390.613 183.499 386.036C182.311 381.459 180.147 377.195 177.156 373.537C175.457 371.502 173.51 369.689 171.36 368.141C169.905 371.984 167.962 375.784 167.962 375.784Z" fill="#A9DCBD"/>
<path d="M113.595 273.796C101.904 261.715 84.9615 254.786 67.1126 254.786L66.4242 254.788C54.6676 254.792 43.1208 251.668 32.9648 245.734L31.9079 245.117L32.7591 244.238C37.3673 239.46 41.2152 234.002 44.1679 228.053C42.0708 230.012 39.5697 231.485 36.8414 232.368C34.1131 233.251 31.2244 233.523 28.3799 233.163C25.3767 232.805 22.4936 231.769 19.9468 230.134C17.4 228.5 15.2556 226.309 13.6746 223.725C7.43622 213.583 0 199.192 0 188.229C0.00971096 178.962 1.94609 169.799 5.6857 161.324C9.42532 152.848 14.8861 145.247 21.7201 139.003C26.0466 135.094 29.5023 130.315 31.862 124.978C34.2218 119.641 35.4324 113.866 35.4152 108.029L35.4117 107.198C35.4106 99.5129 36.3478 91.8564 38.2026 84.3994L38.3909 83.6464L39.1642 83.6735C44.1502 83.8435 49.139 83.4247 54.0274 82.4258C49.4421 81.8622 44.9564 80.6667 40.6976 78.8733L39.8658 78.5361L40.1481 77.682C59.6074 65.6092 103.533 71.8611 129.028 13.4114C149.702 -33.9835 222.644 55.4838 222.644 107.198C222.644 112.475 217.432 119.448 221.334 122.936C263.509 160.638 234.409 184.848 225.234 209.21C223.057 214.99 227.777 221.335 227.777 227.588C227.777 228.649 227.75 229.745 227.697 230.844L227.616 232.533L226.209 231.596C223.428 229.77 220.849 227.65 218.518 225.274C220.936 230.851 222.076 236.901 221.853 242.977C221.63 249.054 220.051 255.004 217.23 260.388C212.81 268.747 208.534 274.731 204.521 278.173C191.665 289.197 175.092 294.884 158.191 294.07C141.289 293.256 125.337 286.004 113.595 273.796Z" fill="#A9DCBD"/>
<path d="M184.205 399.552C184.493 399.551 184.77 399.447 184.987 399.258C185.204 399.069 185.346 398.808 185.386 398.523C185.437 398.166 190.408 362.241 185.944 314.496C181.82 270.402 168.579 206.891 128.915 154.731C128.82 154.606 128.701 154.5 128.565 154.421C128.43 154.342 128.28 154.29 128.124 154.269C127.969 154.248 127.811 154.258 127.659 154.298C127.507 154.338 127.364 154.408 127.24 154.503C127.115 154.599 127.01 154.718 126.931 154.854C126.852 154.99 126.801 155.14 126.78 155.296C126.759 155.452 126.769 155.61 126.809 155.762C126.849 155.914 126.919 156.057 127.014 156.182C166.337 207.892 179.471 270.937 183.565 314.719C188.003 362.187 183.071 397.831 183.021 398.186C182.997 398.356 183.01 398.529 183.058 398.693C183.107 398.858 183.19 399.01 183.302 399.139C183.415 399.269 183.553 399.373 183.709 399.444C183.865 399.515 184.034 399.552 184.205 399.552Z" fill="#3F3D56"/>
<path d="M151.836 228.306C152.089 228.306 152.335 228.226 152.539 228.077C152.743 227.929 152.895 227.719 152.973 227.479C153.051 227.239 153.051 226.98 152.974 226.739C152.896 226.499 152.744 226.289 152.54 226.14C152.396 226.036 137.885 215.559 116.192 207.6C96.1386 200.244 65.6443 193.574 34.2508 203.586C34.1011 203.634 33.9622 203.71 33.8421 203.811C33.7219 203.913 33.6229 204.037 33.5507 204.176C33.4784 204.316 33.4344 204.469 33.4211 204.626C33.4077 204.782 33.4254 204.94 33.473 205.09C33.5206 205.24 33.5973 205.379 33.6986 205.499C33.7999 205.62 33.9238 205.719 34.0634 205.791C34.2029 205.863 34.3553 205.907 34.5117 205.92C34.6682 205.933 34.8257 205.915 34.9753 205.867C65.7255 196.061 95.6671 202.62 115.371 209.848C136.754 217.694 150.994 227.974 151.135 228.077C151.339 228.226 151.584 228.306 151.836 228.306Z" fill="#3F3D56"/>
<path d="M206.51 91.8592C206.528 91.607 206.467 91.3555 206.334 91.1407C206.2 90.9259 206.003 90.7588 205.769 90.6634C205.535 90.5681 205.278 90.5493 205.033 90.6099C204.788 90.6704 204.568 90.8071 204.405 91.0004C204.291 91.1367 192.818 104.884 183.333 125.991C174.566 145.503 165.732 175.5 173.436 207.596C173.51 207.904 173.704 208.171 173.974 208.337C174.244 208.502 174.569 208.554 174.877 208.479C175.185 208.405 175.451 208.211 175.616 207.941C175.782 207.67 175.833 207.345 175.759 207.036C168.213 175.597 176.898 146.146 185.512 126.974C194.861 106.168 206.119 92.6775 206.232 92.5436C206.395 92.3507 206.492 92.1111 206.51 91.8592Z" fill="#3F3D56"/>
<path d="M204.894 153.58C205.901 161.728 211.536 168.446 219.73 168.446C223.665 168.446 227.439 166.88 230.221 164.092C233.003 161.304 234.566 157.523 234.566 153.58C234.566 145.369 227.889 139.473 219.73 138.714C211.073 137.908 203.6 143.119 204.894 153.58Z" fill="#2F2E41"/>
<path d="M226.602 393.004L232.252 393.003L234.939 371.167L226.601 371.167L226.602 393.004Z" fill="#FFB6B6"/>
<path d="M226.403 398.909L243.777 398.909V398.689C243.777 396.892 243.065 395.168 241.796 393.897C240.528 392.627 238.808 391.913 237.015 391.913H237.014L233.841 389.5L227.919 391.913L226.403 391.913L226.403 398.909Z" fill="#2F2E41"/>
<path d="M204.347 393.004L209.997 393.003L212.684 371.167L204.346 371.167L204.347 393.004Z" fill="#FFB6B6"/>
<path d="M204.148 398.909L221.522 398.909V398.689C221.522 396.892 220.81 395.168 219.541 393.897C218.273 392.627 216.553 391.913 214.76 391.913H214.759L211.586 389.5L205.665 391.913L204.148 391.913L204.148 398.909Z" fill="#2F2E41"/>
<path d="M246.044 256.238L250.039 269.961L245.333 328.08C245.333 328.08 247.756 331.713 246.044 331.713C244.332 331.713 242.137 332.519 243.52 334.689C244.903 336.859 240.176 344.65 240.176 344.65L233.49 386.033L224.971 385.907C224.971 385.907 220.64 383.489 223.071 381.045C225.501 378.6 227.213 378.6 224.931 376.313C222.648 374.026 222.648 374.714 222.648 372.94C222.648 371.167 220.361 349.488 225.785 341.173L224.151 307.269L220.302 340.524L212.377 384.889L204.17 384.822C204.17 384.822 200.38 381.161 200.387 378.451C200.394 375.741 202.729 375.516 200.99 373.913C199.252 372.31 199.252 347.687 204.388 334.001C204.388 334.001 207.293 326.354 204.381 323.733C201.47 321.113 204.378 318.115 204.378 318.115C204.378 318.115 208.99 316.444 204.374 311.631C199.758 306.818 204.349 272.779 204.349 272.779C204.349 272.779 199.303 259.039 204.413 253.636C209.524 248.233 246.044 256.238 246.044 256.238Z" fill="#2F2E41"/>
<path d="M174.901 279.881L182.028 262.623L187.643 265.749L184.252 283.304C184.591 284.417 184.615 285.602 184.319 286.726C184.023 287.851 183.42 288.871 182.578 289.671C181.735 290.471 180.687 291.02 179.55 291.256C178.414 291.492 177.234 291.405 176.144 291.006C175.053 290.607 174.096 289.911 173.379 288.997C172.662 288.082 172.213 286.985 172.084 285.829C171.955 284.673 172.15 283.504 172.648 282.453C173.145 281.403 173.926 280.512 174.901 279.881Z" fill="#FFB6B6"/>
<path d="M294.491 143.413L283.647 158.604L278.885 154.284L286.157 137.955C286.078 136.795 286.323 135.635 286.866 134.607C287.408 133.579 288.226 132.722 289.227 132.134C290.229 131.546 291.374 131.249 292.534 131.278C293.695 131.306 294.824 131.658 295.796 132.294C296.768 132.931 297.543 133.826 298.035 134.88C298.526 135.933 298.715 137.103 298.579 138.259C298.444 139.414 297.989 140.508 297.267 141.419C296.545 142.329 295.583 143.02 294.491 143.413Z" fill="#FFB6B6"/>
<path d="M247.121 257.645C254.154 268.576 218.799 282.449 205.233 276.88C202.858 275.904 194.687 272.683 200.272 268.217C205.857 263.751 199.625 263.123 199.477 260.216C199.379 258.272 200.88 254.009 199.314 254.191C197.747 254.374 195.913 251.686 199.325 250.53C202.738 249.373 199.362 248.318 199.392 247.22C199.718 235.238 208.893 216.18 208.893 216.18L192.361 258.524C192.361 258.524 192.483 265.85 190.375 263.612C188.267 261.373 188.42 268.619 188.42 268.619C188.42 268.619 185.285 270.811 187.088 272.031C188.89 273.251 185.147 277.002 185.147 277.002L176.413 276.376C176.413 276.376 176.549 269.875 178.041 268.437C179.532 266.999 178.8 264.737 178.8 264.737C178.8 264.737 182.682 261.293 180.079 258.496C176.731 254.9 188.938 194.153 193.15 194.755C193.746 191.85 195.131 189.168 197.154 187.003C199.176 184.838 201.756 183.276 204.609 182.489L214.043 179.886L215.718 173.227H229.001L231.315 177.603L241.414 182.169C243.316 179.48 244.738 176.646 252.528 175.727C252.528 175.727 273.517 156.591 272.492 155.097C271.467 153.603 274.721 150.105 274.721 150.105C274.721 150.105 277.5 149.194 275.932 148.707C274.364 148.22 277.328 147.096 277.328 147.096C277.328 147.096 280.072 146.373 278.778 145.421C277.483 144.47 283.098 143.844 283.098 143.844L290.384 149.801L288.911 152.302C288.911 152.302 289.809 155.709 288.637 154.465C287.466 153.222 287.245 156.831 287.245 156.831C287.245 156.831 286.647 160.783 283.098 161.974C279.55 163.165 276.859 174.477 276.859 174.477C268.491 185.379 258.615 193.884 246.913 199.483C251.473 204.729 247.121 257.645 247.121 257.645Z" fill="#EB8423"/>
<path d="M221.37 169.329C228.636 169.329 234.526 163.427 234.526 156.146C234.526 148.866 228.636 142.963 221.37 142.963C214.104 142.963 208.214 148.866 208.214 156.146C208.214 163.427 214.104 169.329 221.37 169.329Z" fill="#FFB6B6"/>
<path d="M207.747 157.582C208.163 160.447 210.6 164.444 210.029 164.444C209.459 164.444 205.401 152.635 209.459 151.865C212.401 151.306 213.059 151.796 215.81 150.601L215.422 150.967C217.242 152.293 219.776 151.476 221.853 150.612C223.936 149.755 226.463 148.937 228.289 150.258C229.436 151.087 229.921 152.528 230.635 153.751C231.348 154.981 232.666 156.142 234.024 155.764C235.114 155.461 235.742 154.237 235.736 153.105C235.731 151.973 234.259 150.896 234.755 149.88C236.223 146.87 234.903 144.819 231.702 143.402C230.538 143.225 229.374 143.044 228.21 142.859C228.82 142.012 229.559 141.268 230.401 140.652C230.045 139.738 229.43 138.949 228.632 138.382C227.702 137.827 226.549 137.867 225.471 137.924C223.062 138.05 220.656 138.176 218.252 138.302C216.472 138.393 214.629 138.502 213.036 139.32C211.051 140.343 209.75 142.339 208.802 144.368C206.68 148.931 207.016 152.602 207.747 157.582Z" fill="#2F2E41"/>
<path d="M153.017 400.395L282.408 400.57C282.588 400.57 282.761 400.499 282.889 400.371C283.016 400.243 283.088 400.07 283.088 399.89C283.088 399.709 283.016 399.536 282.889 399.408C282.761 399.28 282.588 399.209 282.408 399.209L153.017 399.033C152.837 399.033 152.664 399.105 152.536 399.232C152.409 399.36 152.337 399.533 152.337 399.714C152.337 399.894 152.409 400.068 152.536 400.195C152.664 400.323 152.837 400.395 153.017 400.395Z" fill="#CACACA"/>
<path d="M106.219 341.048C106.458 339.406 104.741 337.795 102.384 337.452C100.027 337.108 97.9236 338.162 97.6851 339.804C97.4465 341.447 99.1637 343.057 101.52 343.401C103.877 343.744 105.981 342.691 106.219 341.048Z" fill="#E6E6E6"/>
<path d="M134.278 338.305C134.517 336.662 132.8 335.052 130.443 334.708C128.086 334.365 125.982 335.418 125.744 337.061C125.505 338.703 127.222 340.314 129.579 340.657C131.936 341.001 134.04 339.948 134.278 338.305Z" fill="#3F3D56"/>
<path d="M98.536 318.287C98.7745 316.644 97.0575 315.034 94.7008 314.69C92.3441 314.347 90.2403 315.4 90.0017 317.042C89.7632 318.685 91.4803 320.295 93.837 320.639C96.1937 320.983 98.2975 319.929 98.536 318.287Z" fill="#FF6584"/>
<path d="M86.3437 308.963C86.355 307.455 85.5155 306.226 84.4685 306.218C83.4215 306.21 82.5635 307.426 82.5521 308.934C82.5407 310.443 83.3803 311.672 84.4273 311.679C85.4743 311.687 86.3323 310.471 86.3437 308.963Z" fill="#E6E6E6"/>
<path d="M82.2089 291.597C82.2202 290.089 81.3807 288.86 80.3337 288.852C79.2867 288.844 78.4287 290.06 78.4173 291.569C78.406 293.077 79.2455 294.306 80.2925 294.314C81.3395 294.321 82.1975 293.105 82.2089 291.597Z" fill="#3F3D56"/>
<path d="M114.361 322.16C114.373 320.652 113.533 319.423 112.486 319.415C111.439 319.407 110.581 320.623 110.57 322.131C110.559 323.64 111.398 324.869 112.445 324.876C113.492 324.884 114.35 323.668 114.361 322.16Z" fill="#E6E6E6"/>
<path d="M100.802 328.944C100.814 327.436 99.9739 326.207 98.9269 326.199C97.8799 326.191 97.022 327.407 97.0106 328.915C96.9992 330.423 97.8387 331.652 98.8857 331.66C99.9327 331.668 100.791 330.452 100.802 328.944Z" fill="#FF6584"/>
<path d="M119.677 341.482C119.689 339.974 118.849 338.745 117.802 338.737C116.755 338.729 115.897 339.945 115.886 341.453C115.874 342.961 116.714 344.19 117.761 344.198C118.808 344.206 119.666 342.99 119.677 341.482Z" fill="#3F3D56"/>
<path d="M321.919 252.994C322.157 251.351 320.44 249.741 318.084 249.397C315.727 249.053 313.623 250.107 313.385 251.749C313.146 253.392 314.863 255.002 317.22 255.346C319.577 255.69 321.68 254.636 321.919 252.994Z" fill="#E6E6E6"/>
<path d="M349.978 250.25C350.216 248.607 348.499 246.997 346.143 246.654C343.786 246.31 341.682 247.363 341.444 249.006C341.205 250.649 342.922 252.259 345.279 252.602C347.636 252.946 349.739 251.893 349.978 250.25Z" fill="#3F3D56"/>
<path d="M314.235 230.232C314.474 228.589 312.757 226.979 310.4 226.635C308.043 226.292 305.939 227.345 305.701 228.988C305.462 230.63 307.18 232.241 309.536 232.584C311.893 232.928 313.997 231.875 314.235 230.232Z" fill="#FF6584"/>
<path d="M302.043 220.908C302.055 219.4 301.215 218.171 300.168 218.163C299.121 218.155 298.263 219.372 298.252 220.88C298.24 222.388 299.08 223.617 300.127 223.625C301.174 223.633 302.032 222.416 302.043 220.908Z" fill="#E6E6E6"/>
<path d="M297.909 203.542C297.92 202.034 297.08 200.805 296.033 200.797C294.986 200.789 294.128 202.005 294.117 203.514C294.106 205.022 294.945 206.251 295.992 206.259C297.039 206.267 297.897 205.05 297.909 203.542Z" fill="#3F3D56"/>
<path d="M330.061 234.105C330.073 232.597 329.233 231.368 328.186 231.36C327.139 231.352 326.281 232.569 326.27 234.077C326.258 235.585 327.098 236.814 328.145 236.822C329.192 236.83 330.05 235.613 330.061 234.105Z" fill="#E6E6E6"/>
<path d="M316.502 240.889C316.513 239.381 315.674 238.152 314.627 238.144C313.58 238.136 312.722 239.352 312.71 240.86C312.699 242.368 313.538 243.597 314.585 243.605C315.632 243.613 316.49 242.397 316.502 240.889Z" fill="#FF6584"/>
<path d="M335.377 253.427C335.388 251.919 334.549 250.69 333.502 250.682C332.455 250.674 331.597 251.89 331.585 253.398C331.574 254.906 332.413 256.135 333.46 256.143C334.507 256.151 335.365 254.935 335.377 253.427Z" fill="#3F3D56"/>
<path d="M217.493 90.0349C217.731 88.3921 216.014 86.7819 213.658 86.4383C211.301 86.0947 209.197 87.1479 208.959 88.7906C208.72 90.4334 210.437 92.0436 212.794 92.3872C215.15 92.7308 217.254 91.6776 217.493 90.0349Z" fill="white"/>
<path d="M245.552 87.2914C245.79 85.6487 244.073 84.0384 241.717 83.6949C239.36 83.3513 237.256 84.4044 237.018 86.0472C236.779 87.6899 238.496 89.3001 240.853 89.6437C243.21 89.9873 245.313 88.9341 245.552 87.2914Z" fill="#3F3D56"/>
<path d="M209.809 67.2731C210.048 65.6304 208.331 64.0202 205.974 63.6766C203.618 63.333 201.514 64.3862 201.275 66.0289C201.037 67.6717 202.754 69.2819 205.11 69.6255C207.467 69.9691 209.571 68.9159 209.809 67.2731Z" fill="#FF6584"/>
<path d="M197.617 57.9496C197.629 56.4415 196.789 55.2126 195.742 55.2046C194.695 55.1967 193.837 56.4128 193.826 57.9209C193.814 59.429 194.654 60.658 195.701 60.6659C196.748 60.6739 197.606 59.4577 197.617 57.9496Z" fill="#E6E6E6"/>
<path d="M193.483 40.5836C193.494 39.0755 192.654 37.8465 191.607 37.8386C190.56 37.8306 189.702 39.0468 189.691 40.5549C189.68 42.063 190.519 43.292 191.566 43.2999C192.613 43.3078 193.471 42.0917 193.483 40.5836Z" fill="#3F3D56"/>
<path d="M225.635 71.1466C225.647 69.6385 224.807 68.4095 223.76 68.4016C222.713 68.3936 221.855 69.6098 221.844 71.1179C221.832 72.626 222.672 73.855 223.719 73.8629C224.766 73.8708 225.624 72.6547 225.635 71.1466Z" fill="#E6E6E6"/>
<path d="M212.076 77.9302C212.087 76.4221 211.248 75.1932 210.201 75.1852C209.154 75.1773 208.296 76.3934 208.284 77.9015C208.273 79.4096 209.112 80.6386 210.159 80.6465C211.206 80.6545 212.064 79.4383 212.076 77.9302Z" fill="#FF6584"/>
<path d="M230.951 90.4682C230.962 88.9601 230.123 87.7311 229.076 87.7232C228.029 87.7153 227.171 88.9314 227.159 90.4395C227.148 91.9476 227.987 93.1766 229.034 93.1845C230.081 93.1924 230.939 91.9763 230.951 90.4682Z" fill="#3F3D56"/>
</g>
<defs>
<clipPath id="clip0_719_1547">
<rect width="350" height="400.57" fill="white"/>
</clipPath>
</defs>
</svg>
