<svg width="350" height="395" viewBox="0 0 350 395" fill="none" xmlns="http://www.w3.org/2000/svg">
<g clip-path="url(#clip0_1193_2026)">
<path d="M198.417 303.722C282.134 303.722 350 235.856 350 152.139C350 68.4225 282.134 0.55658 198.417 0.55658C114.7 0.55658 46.8346 68.4225 46.8346 152.139C46.8346 235.856 114.7 303.722 198.417 303.722Z" fill="#D5D5D5"/>
<path d="M297.474 68.3441H19.7956C19.2002 68.3313 18.7278 67.8383 18.7405 67.2429C18.7529 66.6654 19.2181 66.2002 19.7956 66.1878H297.474C298.07 66.2005 298.542 66.6936 298.529 67.289C298.517 67.8665 298.052 68.3317 297.474 68.3441Z" fill="#CACACA"/>
<path d="M202.842 104.679H126.081C120.315 104.679 115.641 109.353 115.641 115.118V115.118C115.641 120.884 120.315 125.558 126.081 125.558H202.842C208.608 125.558 213.282 120.884 213.282 115.118C213.282 109.353 208.608 104.679 202.842 104.679Z" fill="white"/>
<path d="M76.4925 146.437H252.43C258.196 146.437 262.87 151.111 262.87 156.877C262.87 162.642 258.196 167.316 252.43 167.316H76.4925C70.7269 167.316 66.0529 162.642 66.0529 156.877C66.0529 151.111 70.7269 146.437 76.4925 146.437Z" fill="white"/>
<path d="M76.4925 188.196H252.43C258.196 188.196 262.87 192.87 262.87 198.635C262.87 204.401 258.196 209.075 252.43 209.075H76.4925C70.7269 209.075 66.0529 204.401 66.0529 198.635C66.0529 192.87 70.7269 188.196 76.4925 188.196Z" fill="white"/>
<path d="M54.6896 393.096L54.2756 393.055C40.2269 391.606 27.527 384.05 19.5497 372.395C17.3647 369.148 15.5972 365.638 14.2891 361.949L14.1634 361.597L14.5356 361.567C18.9798 361.21 23.5454 360.456 25.5736 360.097L12.4953 355.666L12.4144 355.277C11.639 351.635 13.1581 347.887 16.2508 345.811C19.352 343.637 23.4643 343.567 26.6373 345.636C28.0612 346.545 29.5505 347.446 30.9907 348.317C35.94 351.311 41.0577 354.407 44.8947 358.642C50.7131 365.194 53.2634 374.021 51.8353 382.666L54.6896 393.096Z" fill="#F2F2F2"/>
<path d="M102.229 386.592L108.674 386.591L111.741 361.728L102.227 361.729L102.229 386.592Z" fill="#A0616A"/>
<path d="M102.002 393.316L121.823 393.315V393.064C121.823 388.804 118.369 385.35 114.108 385.349L110.487 382.603L103.732 385.35L102.001 385.35L102.002 393.316Z" fill="#2F2E41"/>
<path d="M50.572 368.738L55.7276 372.606L73.1017 354.559L65.4916 348.85L50.572 368.738Z" fill="#A0616A"/>
<path d="M46.3547 373.981L62.2106 385.876L62.3611 385.675C64.9179 382.267 64.2278 377.431 60.8197 374.874L59.5716 370.504L52.5192 368.647L51.1351 367.609L46.3547 373.981Z" fill="#2F2E41"/>
<path d="M71.9986 269.916C71.9986 269.916 72.3544 279.622 72.8032 287.406C72.8768 288.683 69.886 290.069 69.9635 291.458C70.0148 292.38 70.577 293.275 70.6292 294.236C70.6843 295.25 69.9082 296.147 69.9635 297.196C70.0175 298.22 70.9029 299.395 70.9563 300.444C71.5311 311.729 73.6148 325.238 71.5283 329.015C70.5 330.876 57.3933 356.66 57.3933 356.66C57.3933 356.66 64.6959 367.614 66.7824 363.963C69.5382 359.14 90.7767 336.578 90.7767 332.269C90.7767 327.966 95.6903 295.715 95.6903 295.715L99.1164 314.801L100.687 318.582L100.194 320.802L101.209 323.798L101.264 326.763L102.252 332.269C102.252 332.269 99.2791 375.167 100.953 376.361C102.633 377.561 110.765 379.716 111.725 377.561C112.679 375.407 118.893 332.791 118.893 332.791C118.893 332.791 119.894 313.262 120.979 295.109C121.042 294.056 121.782 292.783 121.84 291.745C121.908 290.54 121.438 288.975 121.501 287.807C121.569 286.466 122.163 285.522 122.221 284.239C122.664 274.323 120.175 262.248 119.382 261.059C116.988 257.47 114.834 254.601 114.834 254.601C114.834 254.601 82.5862 244.006 73.9691 254.772L71.9986 269.916Z" fill="#46445F"/>
<path d="M104.161 170.105L91.3774 167.548L85.4117 175.644C74.2802 186.59 74.1125 196.25 76.0997 211.734V233.466L74.6614 248.035C74.6614 248.035 69.57 258.684 74.8213 261.164C80.0727 263.643 114.566 263.432 117.859 262.442C121.153 261.452 118.298 260.237 117.433 255.624C115.809 246.959 116.895 251.139 117.007 248.38C118.61 208.806 114.877 192.559 114.498 188.288L107.996 176.496L104.161 170.105Z" fill="#65618D"/>
<path d="M171.539 202.013C170.206 204.537 167.08 205.504 164.555 204.171C164.286 204.029 164.03 203.864 163.79 203.677L136.183 221.206L136.262 211.662L163.081 196.099C164.991 193.957 168.276 193.77 170.417 195.68C172.21 197.278 172.673 199.896 171.539 202.013Z" fill="#A0616A"/>
<path d="M94.0677 181.157L90.9247 180.824C88.0206 180.523 85.1712 181.767 83.4175 184.101C82.7458 184.987 82.2634 186.001 82.0002 187.08L81.9983 187.089C81.2099 190.338 82.4465 193.744 85.1362 195.731L95.9918 203.734C103.61 214.028 117.927 220.858 134.722 226.406L160.827 210.193L151.594 199.011L133.688 208.607L107.073 188.004L107.057 187.991L96.9273 181.465L94.0677 181.157Z" fill="#3F3D56"/>
<path d="M99.8416 163.827C108.075 163.827 114.749 157.153 114.749 148.92C114.749 140.687 108.075 134.012 99.8416 134.012C91.6085 134.012 84.9341 140.687 84.9341 148.92C84.9341 157.153 91.6085 163.827 99.8416 163.827Z" fill="#A0616A"/>
<path d="M100.186 163.831C100.066 163.834 99.9453 163.837 99.825 163.84C99.7735 163.974 99.718 164.106 99.6539 164.236L100.186 163.831Z" fill="#2F2E41"/>
<path d="M104.277 149.333C104.301 149.48 104.336 149.625 104.384 149.766C104.364 149.618 104.329 149.473 104.277 149.333Z" fill="#2F2E41"/>
<path d="M114.939 134.65C114.326 136.555 113.778 134.139 111.76 134.573C109.331 135.096 106.506 134.917 104.517 133.428C101.554 131.254 97.7145 130.669 94.2385 131.862C90.8359 133.065 85.1355 133.914 84.2489 137.413C83.9407 138.629 83.8183 139.949 83.0713 140.957C82.4182 141.838 81.3874 142.34 80.5254 143.018C77.6148 145.309 79.8394 151.815 81.217 155.253C82.5946 158.691 85.7546 161.195 89.2289 162.478C92.5905 163.719 96.239 163.938 99.825 163.84C100.449 162.223 100.179 160.354 99.6646 158.677C99.1075 156.862 98.2825 155.11 98.0498 153.225C97.817 151.341 98.3281 149.2 99.9084 148.147C101.361 147.179 103.725 147.768 104.277 149.333C103.955 147.377 105.937 145.484 107.98 145.151C110.174 144.793 112.368 145.585 114.556 145.98C116.744 146.374 115.967 137.163 114.939 134.65Z" fill="#2F2E41"/>
<path d="M198.313 173.58C199.703 156.788 187.217 142.05 170.426 140.66C153.635 139.27 138.896 151.756 137.506 168.547C136.116 185.339 148.602 200.077 165.393 201.467C182.185 202.857 196.924 190.371 198.313 173.58Z" fill="#EB8423"/>
<path d="M175.924 158.352L167.91 166.366L159.896 158.352C158.599 157.055 156.495 157.055 155.198 158.352C153.901 159.649 153.901 161.753 155.198 163.05L163.212 171.064L155.198 179.077C153.902 180.376 153.904 182.479 155.203 183.775C156.499 185.069 158.599 185.069 159.896 183.775L167.91 175.761L175.924 183.775C177.222 185.071 179.325 185.069 180.621 183.771C181.916 182.474 181.916 180.374 180.621 179.077L172.608 171.064L180.621 163.05C181.918 161.753 181.918 159.649 180.621 158.352C179.324 157.055 177.221 157.055 175.924 158.352Z" fill="white"/>
<path d="M155.888 145.422C156.787 148.131 155.32 151.056 152.611 151.955C152.322 152.051 152.025 152.121 151.724 152.165L145.261 184.222L138.429 177.558L145.765 147.431C145.542 144.57 147.681 142.069 150.542 141.846C152.936 141.66 155.146 143.138 155.888 145.422Z" fill="#A0616A"/>
<path d="M87.2049 186.887L84.7887 188.924C82.5607 190.811 81.4856 193.729 81.956 196.61C82.1299 197.708 82.5276 198.758 83.1245 199.695L83.1294 199.703C84.9285 202.521 88.2421 203.987 91.5379 203.421L104.829 201.129C117.531 202.758 132.371 197.154 148.002 188.876L154.375 158.815L139.913 157.736L134.442 177.3L101.149 182.242L101.129 182.245L89.4065 185.036L87.2049 186.887Z" fill="#3F3D56"/>
<path d="M162.884 393.83L0.708283 394.014C0.315845 394.013 -0.00126734 393.693 3.80823e-06 393.301C0.00126302 392.91 0.317629 392.594 0.708283 392.593L162.884 392.409C163.276 392.411 163.593 392.73 163.592 393.122C163.591 393.513 163.275 393.829 162.884 393.83Z" fill="#CACACA"/>
<path d="M33.8834 54.6868C36.6707 54.6868 38.9302 52.3769 38.9302 49.5275C38.9302 46.6782 36.6707 44.3683 33.8834 44.3683C31.0962 44.3683 28.8367 46.6782 28.8367 49.5275C28.8367 52.3769 31.0962 54.6868 33.8834 54.6868Z" fill="white"/>
<path d="M51.3177 54.6868C54.1049 54.6868 56.3644 52.3769 56.3644 49.5275C56.3644 46.6782 54.1049 44.3683 51.3177 44.3683C48.5304 44.3683 46.2709 46.6782 46.2709 49.5275C46.2709 52.3769 48.5304 54.6868 51.3177 54.6868Z" fill="white"/>
<path d="M68.7519 54.6868C71.5391 54.6868 73.7986 52.3769 73.7986 49.5275C73.7986 46.6782 71.5391 44.3683 68.7519 44.3683C65.9646 44.3683 63.7051 46.6782 63.7051 49.5275C63.7051 52.3769 65.9646 54.6868 68.7519 54.6868Z" fill="white"/>
<path d="M88.6316 53.6052C88.4766 53.6052 88.3218 53.5452 88.205 53.4257L84.7997 49.9447C84.5727 49.7127 84.5727 49.3421 84.7997 49.1101L88.205 45.6294C88.4361 45.3939 88.8143 45.3901 89.0489 45.62C89.2846 45.8505 89.2887 46.2285 89.0582 46.4639L86.0612 49.5274L89.0582 52.5912C89.2887 52.8266 89.2846 53.2045 89.0489 53.435C88.9329 53.5487 88.7822 53.6052 88.6316 53.6052Z" fill="white"/>
<path d="M94.3538 53.6052C94.2031 53.6052 94.0525 53.5487 93.9365 53.4351C93.7008 53.2046 93.6967 52.8269 93.9272 52.5912L96.9239 49.5274L93.9272 46.4639C93.6967 46.2285 93.7008 45.8506 93.9365 45.6201C94.1716 45.3893 94.5499 45.3936 94.7804 45.6294L98.1854 49.1101C98.4124 49.3421 98.4124 49.7127 98.1854 49.9447L94.7804 53.4257C94.6635 53.5452 94.5088 53.6052 94.3538 53.6052Z" fill="white"/>
<path d="M272.499 44.9656H266.167C265.445 44.9656 264.86 45.5505 264.86 46.2726V52.6104C264.86 53.3325 265.445 53.9174 266.167 53.9174H272.499C273.221 53.9174 273.812 53.3325 273.812 52.6104V46.2726C273.812 45.5505 273.221 44.9656 272.499 44.9656Z" fill="white"/>
<path d="M256.983 44.9656H250.651C249.929 44.9656 249.344 45.5505 249.344 46.2726V52.6104C249.344 53.3325 249.929 53.9174 250.651 53.9174H256.983C257.705 53.9174 258.296 53.3325 258.296 52.6104V46.2726C258.296 45.5505 257.705 44.9656 256.983 44.9656Z" fill="white"/>
<path d="M287.12 45.264H280.788C280.066 45.264 279.481 45.8488 279.481 46.571V52.9088C279.481 53.6309 280.066 54.2157 280.788 54.2157H287.12C287.842 54.2157 288.433 53.6309 288.433 52.9088V46.571C288.433 45.8488 287.842 45.264 287.12 45.264Z" fill="white"/>
<path d="M191.682 47.675H141.069C140.186 47.675 139.475 48.3912 139.475 49.2685C139.475 50.1457 140.186 50.8618 141.069 50.8618H191.682C192.559 50.8618 193.275 50.1457 193.275 49.2685C193.275 48.3912 192.559 47.675 191.682 47.675Z" fill="white"/>
</g>
<defs>
<clipPath id="clip0_1193_2026">
<rect width="350" height="393.457" fill="white" transform="translate(0 0.55658)"/>
</clipPath>
</defs>
</svg>
