<svg width="350" height="315" viewBox="0 0 350 315" fill="none" xmlns="http://www.w3.org/2000/svg">
<g clip-path="url(#clip0_719_1611)">
<path d="M346.929 120.343C346.804 120.343 346.682 120.305 346.579 120.233L176.762 1.96786C176.245 1.60963 175.631 1.41819 175.002 1.41926C174.374 1.42033 173.76 1.61387 173.245 1.97385L4.6509 120.232C4.51755 120.326 4.35251 120.362 4.19208 120.334C4.03165 120.306 3.88897 120.215 3.79544 120.082C3.70191 119.949 3.66517 119.783 3.69333 119.623C3.72149 119.463 3.81222 119.32 3.94557 119.226L172.539 0.968252C173.261 0.464344 174.12 0.193469 175 0.192022C175.881 0.190576 176.74 0.458624 177.464 0.960157L347.281 119.225C347.388 119.3 347.469 119.407 347.511 119.531C347.553 119.654 347.555 119.788 347.516 119.913C347.476 120.038 347.398 120.147 347.293 120.224C347.187 120.302 347.06 120.343 346.929 120.343L346.929 120.343Z" fill="#3F3D56"/>
<path d="M14.2849 124.535L175.169 5.30017L337.275 133.019L183.459 224.204L99.9502 205.169L14.2849 124.535Z" fill="#E6E6E6"/>
<path d="M106.999 280.524H27.5181C27.0301 280.525 26.5467 280.429 26.0956 280.243C25.6446 280.057 25.2347 279.783 24.8893 279.438C24.544 279.093 24.2701 278.684 24.0832 278.233C23.8963 277.782 23.8 277.299 23.8 276.811C23.8 276.323 23.8963 275.84 24.0832 275.389C24.2701 274.938 24.544 274.528 24.8893 274.184C25.2347 273.839 25.6446 273.565 26.0956 273.379C26.5467 273.193 27.0301 273.097 27.5181 273.098H106.999C107.487 273.097 107.97 273.193 108.421 273.379C108.873 273.565 109.282 273.839 109.628 274.184C109.973 274.528 110.247 274.938 110.434 275.389C110.621 275.84 110.717 276.323 110.717 276.811C110.717 277.299 110.621 277.782 110.434 278.233C110.247 278.684 109.973 279.093 109.628 279.438C109.282 279.783 108.873 280.057 108.421 280.243C107.97 280.429 107.487 280.525 106.999 280.524Z" fill="#F9A826"/>
<path d="M56.0341 264.559H27.5181C27.0301 264.56 26.5467 264.464 26.0956 264.278C25.6446 264.092 25.2347 263.818 24.8893 263.473C24.544 263.129 24.2701 262.719 24.0832 262.268C23.8963 261.817 23.8 261.334 23.8 260.846C23.8 260.358 23.8963 259.875 24.0832 259.424C24.2701 258.973 24.544 258.564 24.8893 258.219C25.2347 257.874 25.6446 257.6 26.0956 257.414C26.5467 257.228 27.0301 257.132 27.5181 257.133H56.0341C56.5221 257.132 57.0055 257.228 57.4566 257.414C57.9077 257.6 58.3176 257.874 58.6629 258.219C59.0082 258.564 59.2822 258.973 59.4691 259.424C59.656 259.875 59.7522 260.358 59.7522 260.846C59.7522 261.334 59.656 261.817 59.4691 262.268C59.2822 262.719 59.0082 263.129 58.6629 263.473C58.3176 263.818 57.9077 264.092 57.4566 264.278C57.0055 264.464 56.5221 264.56 56.0341 264.559Z" fill="#F9A826"/>
<path d="M177.432 190.948C176.828 190.948 176.229 190.831 175.67 190.603L76.4475 149.432V20.5624C76.4488 19.4228 76.9021 18.3303 77.7079 17.5246C78.5137 16.7188 79.6062 16.2655 80.7458 16.2642H271.097C272.236 16.2655 273.329 16.7188 274.134 17.5246C274.94 18.3303 275.394 19.4228 275.395 20.5624V149.522L275.208 149.602L179.247 190.583C178.672 190.824 178.055 190.948 177.432 190.948Z" fill="white"/>
<path d="M177.432 191.255C176.788 191.255 176.149 191.13 175.553 190.887L76.1405 149.637V20.5624C76.1419 19.3414 76.6275 18.1709 77.4909 17.3075C78.3542 16.4441 79.5248 15.9585 80.7458 15.9571H271.097C272.318 15.9585 273.488 16.4441 274.352 17.3075C275.215 18.1709 275.701 19.3414 275.702 20.5624V149.725L179.367 190.865C178.755 191.123 178.096 191.255 177.432 191.255ZM77.3685 148.817L176.021 189.752C176.941 190.125 177.972 190.119 178.888 189.734L274.474 148.914V20.5624C274.473 19.667 274.117 18.8086 273.484 18.1755C272.85 17.5424 271.992 17.1863 271.097 17.1852H80.7458C79.8504 17.1863 78.992 17.5424 78.3589 18.1755C77.7258 18.8086 77.3697 19.667 77.3686 20.5624L77.3685 148.817Z" fill="#3F3D56"/>
<path d="M345.702 119.115H345.579L275.088 149.215L178.641 190.399C178.264 190.557 177.86 190.64 177.451 190.642C177.042 190.644 176.637 190.565 176.259 190.411L76.7544 149.129L4.53151 119.164L4.42117 119.115H4.29825C3.15867 119.116 2.06612 119.57 1.26032 120.375C0.454516 121.181 0.00126445 122.274 0 123.413V310.08C0.00126607 311.22 0.454517 312.312 1.26032 313.118C2.06612 313.924 3.15867 314.377 4.29825 314.378H345.702C346.841 314.377 347.934 313.924 348.74 313.118C349.545 312.312 349.999 311.22 350 310.08V123.413C349.999 122.274 349.545 121.181 348.74 120.375C347.934 119.57 346.841 119.116 345.702 119.115ZM348.772 310.08C348.772 310.894 348.448 311.675 347.872 312.251C347.297 312.826 346.516 313.15 345.702 313.15H4.29825C3.48408 313.15 2.70337 312.826 2.12767 312.251C1.55197 311.675 1.2284 310.894 1.22807 310.08V123.413C1.22918 122.619 1.53715 121.857 2.08758 121.285C2.63802 120.712 3.38831 120.375 4.18161 120.343L76.7544 150.456L175.786 191.547C176.858 191.983 178.059 191.976 179.126 191.528L275.088 150.548L345.825 120.343C346.617 120.377 347.365 120.716 347.914 121.287C348.463 121.859 348.77 122.621 348.772 123.413V310.08Z" fill="#3F3D56"/>
<path d="M176.44 154.405C172.777 154.412 169.211 153.227 166.28 151.03L166.098 150.894L127.837 121.6C126.065 120.242 124.578 118.549 123.461 116.616C122.343 114.684 121.617 112.55 121.324 110.337C121.031 108.124 121.177 105.875 121.753 103.719C122.33 101.562 123.325 99.54 124.683 97.7681C126.04 95.9961 127.734 94.5089 129.666 93.3914C131.599 92.2739 133.732 91.548 135.945 91.255C138.158 90.9621 140.407 91.1079 142.564 91.6841C144.72 92.2604 146.742 93.2557 148.514 94.6134L173.297 113.616L231.862 37.2386C233.221 35.4671 234.915 33.9805 236.847 32.8637C238.78 31.7468 240.914 31.0216 243.127 30.7295C245.34 30.4373 247.589 30.584 249.746 31.161C251.902 31.7381 253.924 32.7342 255.695 34.0926L255.331 34.587L255.705 34.0998C259.278 36.8461 261.616 40.8977 262.206 45.3657C262.796 49.8337 261.589 54.3531 258.851 57.9326L189.964 147.771C188.37 149.841 186.322 151.517 183.976 152.667C181.631 153.818 179.052 154.412 176.44 154.405Z" fill="#F9A826"/>
</g>
<defs>
<clipPath id="clip0_719_1611">
<rect width="350" height="314.186" fill="white" transform="translate(0 0.192017)"/>
</clipPath>
</defs>
</svg>
