<svg width="350" height="373" viewBox="0 0 350 373" fill="none" xmlns="http://www.w3.org/2000/svg">
<path d="M277.862 115C282.195 112.952 284.074 107.762 281.727 103.584C269.268 81.4093 250.202 63.5702 227.085 52.626C201.345 40.4406 172.177 37.5568 144.551 44.4661C116.924 51.3753 92.547 67.6501 75.5743 90.5174C58.6015 113.385 50.0828 141.43 51.4695 169.874C52.8563 198.318 64.0627 225.401 83.1794 246.509C102.296 267.616 128.14 281.443 156.308 285.632C184.476 289.821 213.225 284.113 237.657 269.482C259.6 256.341 276.841 236.732 287.083 213.45C289.013 209.064 286.638 204.081 282.127 202.465V202.465C277.615 200.849 272.68 203.215 270.7 207.578C261.846 227.088 247.238 243.516 228.741 254.594C207.754 267.162 183.058 272.065 158.861 268.467C134.664 264.868 112.464 252.991 96.0421 234.859C79.6205 216.727 69.9941 193.462 68.8028 169.028C67.6116 144.595 74.9293 120.504 89.5092 100.86C104.089 81.2169 125.029 67.2366 148.761 61.3014C172.493 55.3663 197.549 57.8435 219.659 68.311C239.146 77.5366 255.283 92.4661 265.992 111.022C268.388 115.172 273.53 117.047 277.862 115V115Z" fill="white"/>
<path d="M90.3745 147.232C86.8545 146.535 83.4115 148.822 82.9637 152.383C80.5872 171.28 84.1193 190.51 93.1606 207.394C103.227 226.193 119.501 240.919 139.208 249.065C158.916 257.21 180.838 258.27 201.239 252.064C221.641 245.859 239.259 232.771 251.093 215.031C262.926 197.291 268.243 175.997 266.137 154.777C264.03 133.557 254.631 113.724 239.541 98.6568C224.451 83.5897 204.603 74.221 183.38 72.1471C164.318 70.2845 145.206 74.4096 128.672 83.8623C125.556 85.6432 124.767 89.7007 126.763 92.6828V92.6828C128.759 95.6649 132.783 96.4385 135.919 94.6937C149.937 86.8933 166.047 83.5101 182.116 85.0803C200.347 86.8618 217.397 94.9096 230.359 107.852C243.322 120.795 251.396 137.832 253.205 156.061C255.015 174.289 250.448 192.581 240.283 207.82C230.117 223.059 214.983 234.301 197.458 239.632C179.932 244.963 161.101 244.052 144.172 237.055C127.243 230.058 113.264 217.408 104.616 201.259C96.9946 187.027 93.9304 170.853 95.7479 154.913C96.1545 151.348 93.8945 147.93 90.3745 147.232V147.232Z" fill="white"/>
<path d="M110.457 313.857H100.503C100.321 312.569 99.9498 311.425 99.3892 310.425C98.8286 309.41 98.1089 308.546 97.2301 307.834C96.3513 307.122 95.3362 306.577 94.1847 306.198C93.0483 305.819 91.8134 305.63 90.4801 305.63C88.071 305.63 85.9725 306.228 84.1847 307.425C82.3968 308.607 81.0104 310.334 80.0256 312.607C79.0407 314.865 78.5483 317.607 78.5483 320.834C78.5483 324.153 79.0407 326.94 80.0256 329.198C81.0256 331.456 82.4195 333.16 84.2074 334.312C85.9953 335.463 88.0634 336.039 90.4119 336.039C91.7301 336.039 92.9498 335.865 94.071 335.516C95.2074 335.168 96.215 334.66 97.0938 333.993C97.9725 333.312 98.6998 332.486 99.2756 331.516C99.8665 330.546 100.276 329.44 100.503 328.198L110.457 328.243C110.2 330.38 109.556 332.44 108.526 334.425C107.51 336.395 106.139 338.16 104.412 339.721C102.7 341.266 100.654 342.493 98.2756 343.403C95.9119 344.296 93.2377 344.743 90.2528 344.743C86.1013 344.743 82.3892 343.804 79.1165 341.925C75.8589 340.046 73.2831 337.327 71.3892 333.766C69.5104 330.206 68.571 325.895 68.571 320.834C68.571 315.759 69.5256 311.44 71.4347 307.88C73.3438 304.319 75.9347 301.607 79.2074 299.743C82.4801 297.865 86.1619 296.925 90.2528 296.925C92.9498 296.925 95.4498 297.304 97.7528 298.062C100.071 298.819 102.124 299.925 103.912 301.38C105.7 302.819 107.154 304.584 108.276 306.675C109.412 308.766 110.139 311.16 110.457 313.857ZM117.332 344.107V309.198H127.014V344.107H117.332ZM122.196 304.698C120.757 304.698 119.522 304.221 118.491 303.266C117.476 302.296 116.969 301.137 116.969 299.789C116.969 298.456 117.476 297.312 118.491 296.357C119.522 295.387 120.757 294.903 122.196 294.903C123.635 294.903 124.863 295.387 125.878 296.357C126.908 297.312 127.423 298.456 127.423 299.789C127.423 301.137 126.908 302.296 125.878 303.266C124.863 304.221 123.635 304.698 122.196 304.698ZM134.77 344.107V309.198H144.156V315.289H144.52C145.156 313.122 146.224 311.486 147.724 310.38C149.224 309.259 150.952 308.698 152.906 308.698C153.391 308.698 153.914 308.728 154.474 308.789C155.035 308.849 155.527 308.933 155.952 309.039V317.63C155.497 317.493 154.868 317.372 154.065 317.266C153.262 317.16 152.527 317.107 151.861 317.107C150.437 317.107 149.164 317.418 148.043 318.039C146.937 318.645 146.058 319.493 145.406 320.584C144.77 321.675 144.452 322.933 144.452 324.357V344.107H134.77ZM175.105 344.789C171.529 344.789 168.454 344.031 165.878 342.516C163.317 340.986 161.348 338.865 159.969 336.153C158.605 333.44 157.923 330.319 157.923 326.789C157.923 323.213 158.613 320.077 159.991 317.38C161.385 314.668 163.363 312.554 165.923 311.039C168.484 309.509 171.529 308.743 175.06 308.743C178.105 308.743 180.772 309.296 183.06 310.403C185.348 311.509 187.158 313.062 188.491 315.062C189.825 317.062 190.56 319.41 190.696 322.107H181.56C181.302 320.365 180.62 318.963 179.514 317.903C178.423 316.827 176.991 316.289 175.219 316.289C173.719 316.289 172.408 316.698 171.287 317.516C170.181 318.319 169.317 319.493 168.696 321.039C168.075 322.584 167.764 324.456 167.764 326.653C167.764 328.88 168.067 330.774 168.673 332.334C169.295 333.895 170.166 335.084 171.287 335.903C172.408 336.721 173.719 337.13 175.219 337.13C176.325 337.13 177.317 336.903 178.196 336.448C179.09 335.993 179.825 335.334 180.401 334.471C180.991 333.592 181.378 332.539 181.56 331.312H190.696C190.545 333.978 189.817 336.327 188.514 338.357C187.226 340.372 185.446 341.948 183.173 343.084C180.901 344.221 178.211 344.789 175.105 344.789ZM206.577 297.562V344.107H196.895V297.562H206.577ZM230.241 344.789C226.651 344.789 223.56 344.062 220.969 342.607C218.393 341.137 216.408 339.062 215.014 336.38C213.62 333.683 212.923 330.493 212.923 326.812C212.923 323.221 213.62 320.069 215.014 317.357C216.408 314.645 218.37 312.531 220.901 311.016C223.446 309.501 226.431 308.743 229.855 308.743C232.158 308.743 234.302 309.115 236.287 309.857C238.287 310.584 240.029 311.683 241.514 313.153C243.014 314.622 244.181 316.471 245.014 318.698C245.848 320.91 246.264 323.501 246.264 326.471V329.13H216.787V323.13H237.151C237.151 321.736 236.848 320.501 236.241 319.425C235.635 318.349 234.795 317.509 233.719 316.903C232.658 316.281 231.423 315.971 230.014 315.971C228.545 315.971 227.241 316.312 226.105 316.993C224.984 317.66 224.105 318.562 223.469 319.698C222.832 320.819 222.507 322.069 222.491 323.448V329.153C222.491 330.88 222.81 332.372 223.446 333.63C224.098 334.887 225.014 335.857 226.196 336.539C227.378 337.221 228.779 337.562 230.401 337.562C231.476 337.562 232.461 337.41 233.355 337.107C234.249 336.804 235.014 336.349 235.651 335.743C236.287 335.137 236.772 334.395 237.105 333.516L246.06 334.107C245.605 336.259 244.673 338.137 243.264 339.743C241.87 341.334 240.067 342.577 237.855 343.471C235.658 344.349 233.12 344.789 230.241 344.789ZM281.628 319.153L272.764 319.698C272.613 318.94 272.287 318.259 271.787 317.653C271.287 317.031 270.628 316.539 269.81 316.175C269.007 315.796 268.045 315.607 266.923 315.607C265.423 315.607 264.158 315.925 263.128 316.562C262.098 317.183 261.582 318.016 261.582 319.062C261.582 319.895 261.916 320.599 262.582 321.175C263.249 321.751 264.393 322.213 266.014 322.562L272.332 323.834C275.726 324.531 278.257 325.653 279.923 327.198C281.59 328.743 282.423 330.774 282.423 333.289C282.423 335.577 281.749 337.584 280.401 339.312C279.067 341.039 277.234 342.387 274.901 343.357C272.582 344.312 269.908 344.789 266.878 344.789C262.257 344.789 258.575 343.827 255.832 341.903C253.105 339.963 251.507 337.327 251.037 333.993L260.56 333.493C260.848 334.903 261.545 335.978 262.651 336.721C263.757 337.448 265.173 337.812 266.901 337.812C268.598 337.812 269.961 337.486 270.991 336.834C272.037 336.168 272.567 335.312 272.582 334.266C272.567 333.387 272.196 332.668 271.469 332.107C270.741 331.531 269.62 331.092 268.105 330.789L262.06 329.584C258.651 328.903 256.113 327.721 254.446 326.039C252.795 324.357 251.969 322.213 251.969 319.607C251.969 317.365 252.575 315.433 253.787 313.812C255.014 312.19 256.734 310.94 258.946 310.062C261.173 309.183 263.779 308.743 266.764 308.743C271.173 308.743 274.643 309.675 277.173 311.539C279.719 313.403 281.204 315.94 281.628 319.153Z" fill="white"/>
</svg>
